
<svg width="635" height="120" viewBox="0 0 635 120" fill="none" xmlns="http://www.w3.org/2000/svg">
  <path d="M0 0H100V100H0V0Z" fill="none"/>
  <path d="M48.7499 46.0774C46.6874 45.2649 44.6249 44.5149 42.5624 43.6399C41.6874 43.2649 40.4999 43.2024 39.5624 43.3899C34.9999 44.2024 34.2499 48.4524 34.1249 52.2649C33.9999 56.0774 33.9999 59.8899 33.9999 63.7024C33.9999 74.2649 33.9999 84.8274 33.9999 95.3899C33.9999 97.5149 34.6249 99.6399 37.4999 99.8899C40.9999 100.202 42.9999 97.9524 43.1874 94.7024C43.4999 88.5774 43.3124 82.4524 43.3124 76.3274C43.3124 71.8274 43.3124 67.3274 43.3124 62.8274C43.3124 61.8274 43.3124 60.8274 43.3124 59.6399C44.1874 59.8274 44.4374 60.5149 44.8124 61.0149C48.2499 65.5149 51.7499 69.9524 55.1874 74.4524C57.4999 77.4524 60.1249 80.1399 63.5624 81.6399C65.8749 82.6399 68.2499 82.7649 70.5624 81.5149C73.2499 80.0774 73.9999 77.8899 73.7499 75.0774C73.4999 72.5149 73.6874 69.9524 73.6874 67.3274C73.6874 59.6399 73.6874 51.9524 73.6874 44.2649C73.6874 41.7649 72.5624 39.9524 70.0624 39.4524C66.9374 38.8274 64.1874 40.9524 63.9374 44.0774C63.4999 49.8274 63.4999 55.5774 63.4999 61.3274C63.4999 61.8274 63.4999 62.3274 63.4999 63.0774C62.9374 62.5149 62.6874 62.1399 62.3749 61.7649C57.8749 55.6399 53.1874 49.6399 48.9999 43.3274C48.4999 42.5774 47.9999 42.0774 46.9999 42.2649C45.9999 42.4524 45.5624 43.0774 45.4999 44.0774C45.4374 44.7024 45.4999 45.3899 45.4999 46.0774C46.5624 46.0774 47.6249 46.0774 48.7499 46.0774Z" fill="#C9A227"/>
  <path d="M136.447 79.453C136.447 82.1405 136.384 84.7655 136.447 87.453C136.509 90.453 138.259 92.578 141.134 93.0155C144.447 93.578 146.759 91.7655 147.259 88.4155C147.759 85.0155 147.384 81.5155 147.384 78.078C147.384 61.3905 147.384 44.703 147.384 28.078C147.384 25.128 145.759 23.0155 142.884 22.5155C139.947 22.0155 137.697 23.4155 136.822 26.078C136.447 27.1405 136.384 28.328 136.384 29.453C136.447 46.078 136.447 62.7655 136.447 79.453Z" fill="#C9A227"/>
  <path d="M233.062 61.6399C233.062 57.9524 233.062 54.2649 233.062 50.5774C233.062 47.5774 231.312 45.4524 228.5 45.1399C225.062 44.7649 222.937 46.7024 222.875 50.3274C222.687 59.2649 222.687 68.2024 222.875 77.1399C222.937 80.6399 225.125 82.7024 228.312 82.3899C231.375 82.0774 233.062 79.8899 233.062 76.7024C233.062 71.6399 233.062 66.6399 233.062 61.6399Z" fill="#C9A227"/>
  <path d="M228.625 42.4524C231.5 42.4524 234.25 42.5149 237 42.3899C239.812 42.2649 241.812 40.0149 242.312 37.3274C242.75 34.5149 241.375 31.9524 238.687 31.1399C237.375 30.7024 235.937 30.5774 234.5 30.5774C228.75 30.5774 222.937 30.5774 217.187 30.5774C214.312 30.5774 212.375 32.2649 211.937 35.0774C211.5 37.8899 213.125 40.4524 215.875 41.3274C217.437 41.8274 219.187 42.0149 220.875 42.1399C223.5 42.3899 226.125 42.4524 228.625 42.4524Z" fill="#C9A227"/>
  <path d="M338.063 37.453C335.251 37.4155 333.501 39.0405 333.438 41.953C333.313 47.7655 333.313 53.578 333.438 59.3905C333.501 62.703 336.626 64.578 339.688 62.953C341.438 62.0405 342.126 60.578 342.063 58.6405C342.001 53.203 342.001 47.7655 342.063 42.328C342.126 39.578 340.563 37.4905 338.063 37.453Z" fill="#C9A227"/>
  <path d="M338.063 25.453C335.188 25.453 333.438 27.203 333.438 30.078C333.438 32.953 335.188 34.703 338.063 34.703C340.938 34.703 342.688 32.953 342.688 30.078C342.688 27.203 340.938 25.453 338.063 25.453Z" fill="#C9A227"/>
  <path d="M383.75 67.453C383.75 70.703 383.688 73.953 383.75 77.203C383.813 80.953 386.375 83.1405 389.938 82.578C393 82.078 394.5 79.5155 394.5 76.203C394.563 69.703 394.563 63.203 394.5 56.703C394.5 53.3905 393 50.828 389.938 50.328C386.313 49.7655 383.75 51.953 383.75 55.703C383.688 59.628 383.75 63.5405 383.75 67.453Z" fill="#C9A227"/>
  <path d="M389.187 33.0155C386.187 33.0155 384.125 35.078 384.125 38.078C384.125 41.078 386.187 43.1405 389.187 43.1405C392.187 43.1405 394.25 41.078 394.25 38.078C394.25 35.078 392.187 33.0155 389.187 33.0155Z" fill="#C9A227"/>
  <path d="M508.5 43.1399C505.625 43.0774 503.75 44.8899 503.75 47.7024C503.687 53.5149 503.687 59.3274 503.75 65.1399C503.75 68.2649 506.062 70.2649 509.062 70.0149C512.125 69.7649 513.687 67.3274 513.75 64.0149C513.812 58.3274 513.812 52.6399 513.75 46.9524C513.687 44.8274 512.062 43.2024 508.5 43.1399Z" fill="#C9A227"/>
  <path d="M509.188 30.5774C506.25 30.5774 504.375 32.4524 504.375 35.3899C504.375 38.3274 506.25 40.2024 509.188 40.2024C512.125 40.2024 514 38.3274 514 35.3899C514 32.4524 512.125 30.5774 509.188 30.5774Z" fill="#C9A227"/>
  <path d="M554.875 67.453C554.875 70.703 554.813 73.953 554.875 77.203C554.938 80.953 557.5 83.1405 561.063 82.578C564.125 82.078 565.625 79.5155 565.625 76.203C565.688 69.703 565.688 63.203 565.625 56.703C565.625 53.3905 564.125 50.828 561.063 50.328C557.438 49.7655 554.875 51.953 554.875 55.703C554.813 59.628 554.875 63.5405 554.875 67.453Z" fill="#C9A227"/>
  <path d="M560.312 33.0155C557.312 33.0155 555.25 35.078 555.25 38.078C555.25 41.078 557.312 43.1405 560.312 43.1405C563.312 43.1405 565.375 41.078 565.375 38.078C565.375 35.078 563.312 33.0155 560.312 33.0155Z" fill="#C9A227"/>
  <path d="M186.125 51.0774C183.875 48.0774 180.75 46.8274 177.25 46.2024C172.25 45.3274 167.187 45.5774 162.25 46.8274C160 47.3899 157.937 48.3274 156.437 50.1399C153.562 53.5774 153.312 58.5149 155.812 62.2024C157.875 65.2024 161 66.7649 164.437 67.8274C168.812 69.1399 173.312 69.7024 177.812 70.3899C179.812 70.7024 181.875 70.8899 183.812 71.5774C187.25 72.7649 187.937 76.7024 185.312 79.3899C182.187 82.5774 178.062 82.9524 173.75 82.0149C170.625 81.3274 168.375 79.5774 167 76.5774C165.875 74.1399 163.687 73.0774 161.187 73.5774C158.937 74.0149 157.437 76.1399 157.5 78.5149C157.625 83.3899 161.25 87.3899 166.875 89.1399C171.062 90.4524 175.375 90.7024 179.687 90.0149C184.562 89.2649 189.062 87.7024 192.687 84.2649C195.875 81.2649 197.25 77.6399 197 73.3274C196.687 68.0774 194.062 64.7649 189.187 63.0774C185.062 61.6399 180.75 61.1399 176.5 60.3274C174.312 59.8899 172 59.7024 169.937 58.8274C167.937 57.9524 167.375 56.0149 168.062 54.0774C168.75 52.1399 170.375 51.3274 172.25 51.0149C174.5 50.6399 176.75 50.5149 179 50.7024C181.875 50.9524 184.187 52.1399 185.437 54.8899C186.5 57.3274 188.5 58.3274 191 58.0774C193.5 57.8274 195.062 55.7024 194.937 53.0774C194.812 51.8274 194.562 50.6399 194.062 49.5149C191.875 45.8899 188.5 43.3274 184.375 42.0774C179.187 40.5774 174 40.5149 168.812 41.2024C165.25 41.6399 162 42.9524 159.062 44.9524C153.812 48.3899 151.375 54.4524 152.187 61.2649C153.125 69.0774 159 73.9524 166.5 75.7649C171.25 76.8899 176.062 76.7024 180.875 76.5149C181.437 76.5774 182 76.5149 182.5 76.3274C185.5 75.3274 186.062 72.0774 183.437 70.3274C183 70.0149 182.5 69.8274 182 69.7024C178.437 68.8899 174.875 68.0149 171.187 67.3899C167.937 66.8274 164.687 66.2649 161.437 65.3899C160.687 65.1399 159.937 64.6399 159.25 64.1399C156.75 62.3274 156.625 59.0774 159 57.1399C159.75 56.5149 160.687 56.0149 161.625 55.7649C165.75 54.3274 170 53.9524 174.312 54.3274C175.875 54.4524 177.5 54.7649 178.937 55.3899C180.25 55.9524 181.25 56.9524 181.75 58.3274C182.5 60.4524 184.312 61.4524 186.437 61.0774C188.562 60.7024 189.937 58.5774 189.687 56.3899C189.562 54.5149 188.187 52.6399 186.125 51.0774Z" fill="#C9A227"/>
  <path d="M288.188 45.5774C284.625 45.5774 281.062 45.5774 277.562 45.5774C275 45.5774 273.312 47.3899 273.25 49.8899C273.188 52.5774 274.938 54.4524 277.5 54.4524C280.875 54.4524 284.312 54.4524 287.688 54.4524C289.938 54.4524 292.188 54.3274 294.312 54.8274C297.5 55.5774 299.688 57.8899 300 61.1399C300.312 64.3899 298.875 67.3274 295.938 68.8899C293.812 70.0774 291.5 70.2024 289.125 70.2024C284.062 70.2024 279 70.2024 273.938 70.2024C271.625 70.2024 269.938 71.8274 269.812 74.0774C269.688 76.5149 271.312 78.5774 273.75 78.7024C275.062 78.7649 276.375 78.7024 277.688 78.7024C283.375 78.7024 289.062 78.6399 294.688 78.7649C301.875 78.9524 307.875 74.6399 309.625 67.8274C311.312 61.1399 308.562 54.3899 302.312 51.3899C300.938 50.7649 299.5 50.2649 298.062 49.7649C298 49.5774 297.938 49.3899 297.875 49.2024C299 48.8274 300.125 48.3899 301.312 48.0774C308.062 46.3274 311.062 40.5774 308.812 33.9524C307.188 29.2649 303.312 26.2649 298.312 25.4524C297 25.2649 295.625 25.2649 294.312 25.2649C287.812 25.2649 281.312 25.2649 274.812 25.2649C271.562 25.2649 269.75 27.0774 269.75 30.3274C269.75 46.5774 269.75 62.7649 269.75 79.0149C269.75 82.2649 271.562 84.0774 274.812 84.0774C278.062 84.0774 279.875 82.2649 279.875 79.0149C279.875 74.7649 279.875 70.5149 279.875 66.2649C279.875 65.9524 279.875 65.5774 279.875 65.2024C280.375 65.2024 280.75 65.2649 281.125 65.2649C283.5 65.2649 285.875 65.2649 288.188 65.2024C292 65.1399 295 62.1399 294.938 58.3274C294.875 54.5774 291.938 51.6399 288.188 51.5774C287.812 51.5774 287.438 51.5774 287.062 51.5774C283.938 51.5774 280.812 51.5774 277.688 51.5774C276.375 51.5774 275 51.5149 273.75 51.2024C272.25 50.8274 271.438 49.7649 271.375 48.2649C271.312 46.7649 272.062 45.5774 273.562 45.0774C274.875 44.6399 276.312 44.5774 277.688 44.5774C283.188 44.5774 288.75 44.5774 294.25 44.5774C294.625 44.5774 295.062 44.6399 295.375 44.5774C297.875 43.7024 299.5 41.3274 299.25 38.7649C299 36.1399 297.312 34.0774 294.812 33.6399C294.062 33.5149 293.312 33.5149 292.562 33.5149C286.875 33.5149 281.188 33.5149 275.5 33.5149C275.125 33.5149 274.75 33.5774 274.312 33.5774C274.312 38.2649 274.312 42.8899 274.312 47.5774C278.875 47.5774 283.5 47.5774 288.188 45.5774Z" fill="#C9A227"/>
  <path d="M440.875 72.7649C437.312 72.7649 433.688 72.8274 430.125 72.7649C425.062 72.6399 421.375 70.2649 419.5 65.5774C417.688 61.0774 417.75 56.3899 419.562 51.8899C421.062 48.1399 424 46.0149 428.062 45.4524C428.75 45.3899 429.438 45.3899 430.125 45.3899C436.062 45.3899 442 45.3899 447.875 45.3899C450.562 45.3899 452.375 43.5774 452.375 41.0774C452.375 38.5774 450.562 36.7649 447.875 36.7649C442.062 36.7649 436.25 36.7649 430.5 36.7649C423.75 36.7649 418.312 39.0149 414.688 44.8274C410.062 52.1399 410.062 60.0149 414.688 67.3274C418.75 73.7649 424.938 76.3899 432.188 76.3899C437.5 76.3899 442.812 76.3899 448.125 76.3899C450.812 76.3899 452.625 74.5774 452.625 72.0774C452.625 69.5774 450.812 67.7649 448.125 67.7649C445.688 67.7649 443.25 67.7649 440.875 67.7649C440.875 69.4524 440.875 71.0774 440.875 72.7649Z" fill="#C9A227"/>
  <path d="M499.062 41.0774C502.188 41.0774 505.312 41.0774 508.5 41.0774C508.5 39.3274 508.5 37.7024 508.5 36.0774C505.312 36.0774 502.188 36.0774 499.062 36.0774C499.062 37.7649 499.062 39.4524 499.062 41.0774Z" fill="#C9A227"/>
  <path d="M419.125 41.0774C422.25 41.0774 425.375 41.0774 428.562 41.0774C428.562 39.3274 428.562 37.7024 428.562 36.0774C425.375 36.0774 422.25 36.0774 419.125 36.0774C419.125 37.7649 419.125 39.4524 419.125 41.0774Z" fill="#C9A227"/>
  <path d="M117.312 57.3274C117 51.3274 115.375 45.7649 111.812 40.9524C107.937 35.5774 102.687 32.5774 96.3747 31.7649C88.8747 30.7649 81.3747 30.8274 74.1247 33.6399C67.5622 36.2024 63.1247 41.2024 60.8122 48.0149C58.5622 54.6399 58.4372 61.5149 60.1247 68.3274C61.8122 75.0774 65.5622 80.0774 72.3122 82.5149C77.9997 84.5149 83.8747 84.8274 89.8122 84.3274C94.6872 83.8899 99.4372 82.8274 103.437 80.0149C107.875 76.9524 110.125 72.5149 110.75 67.0774C110.875 65.7024 110.875 64.3274 110.812 62.9524C110.687 59.8274 108.875 57.8274 105.812 57.7649C102.75 57.7024 100.812 59.6399 100.687 62.7649C100.625 64.5774 100.562 66.3899 100.25 68.1399C99.0622 75.5149 91.1872 78.2649 85.1872 76.5774C79.8122 75.0149 76.5622 71.6399 75.3122 66.1399C73.9997 60.2649 74.1247 54.3899 76.2497 48.7024C77.9997 44.0149 81.4997 41.3274 86.3747 40.7024C91.9997 40.0149 97.2497 40.7024 101.437 44.7024C103.75 46.9524 105 49.7649 105.437 52.9524C105.937 56.7024 103.937 59.3899 100.187 60.0149C97.0622 60.5149 95.6247 59.1399 95.5622 56.1399C95.5622 55.3899 95.5622 54.6399 95.5622 53.8899C95.5622 50.5149 93.7497 48.5774 90.4997 48.5774C87.1872 48.5774 85.3747 50.4524 85.3747 53.8274C85.3747 56.5149 85.3747 59.2024 85.3747 61.8899C85.3747 66.8274 89.1247 69.7024 93.9997 68.1399C99.0622 66.5149 101.812 62.8899 102.437 57.7649C103.062 52.3899 101.625 47.5149 97.5622 43.7024C92.6872 39.1399 86.6872 37.7649 80.1247 37.9524C75.9372 38.0774 71.8747 38.8274 68.3122 41.2649C64.0622 44.2024 61.4372 48.5149 60.3122 53.6399C59.1247 59.1399 59.1872 64.7024 60.9372 70.1399C62.8122 76.0149 66.6872 80.2024 72.5622 82.2649C80.0622 84.8899 87.6872 84.7649 95.2497 82.7024C101.875 80.8899 107 76.9524 109.687 70.3899C114.125 59.5774 112.062 44.7024 101.25 37.2024C94.3122 32.3274 86.5622 30.9524 78.3122 31.0149C75.5622 31.0149 72.8122 31.3274 70.1247 31.8274C61.6872 33.5149 55.9997 37.5774 52.8747 45.6399C51.6247 48.7649 51.0622 52.0774 50.9372 55.4524C50.6872 61.7024 51.5622 67.7649 54.5622 73.3274C59.5622 82.7024 68.0622 87.0774 78.5622 87.9524C85.3122 88.5149 92.0622 87.9524 98.6872 86.2024C104.562 84.6399 109.875 82.0149 113.812 77.2649C118.625 71.4524 120.687 64.5149 117.312 57.3274Z" fill="#C9A227"/>
  <path d="M618.5 41.0774C617.938 40.8274 617.5 40.5774 617.062 40.5774C615.188 40.5774 613.312 40.5774 611.438 40.5774C610.75 40.5774 610.125 40.5774 609.438 40.5774C609.375 40.3899 609.312 40.2024 609.188 40.0149C609.562 39.7024 609.875 39.3274 610.312 39.0774C612.938 37.5149 615.5 35.8899 618.125 34.3274C619.688 33.3899 620.062 32.0149 619.5 30.2024C618.875 28.2024 617.375 27.2649 615.312 27.2024C614.688 27.2024 614.062 27.2649 613.438 27.3899C610.688 28.0774 607.812 28.1399 605.125 29.0774C599.188 31.3274 594.375 35.2649 590.75 40.7024C588.312 44.3274 586.938 48.3274 586.312 52.6399C586 55.0774 585.875 57.5149 585.875 59.9524C585.938 64.3899 586.5 68.7649 588.688 72.7649C592.438 79.7649 598.625 83.2649 606.188 84.0149C614.312 84.8274 622 82.9524 628.562 77.2024C634.312 72.1399 637.25 65.7024 637.188 58.0774C637.125 51.1399 634.375 45.3274 629.375 41.0149C626.062 38.1399 622.062 36.4524 617.688 35.8274C613.438 35.2649 609.312 35.9524 605.375 37.7024C602.812 38.8274 601.062 40.7024 600 43.3274C598.5 46.9524 599.312 50.5149 601.938 53.3899C604.562 56.2649 608.062 57.0774 611.875 55.8274C615.75 54.5774 617.438 51.5774 616.875 47.5774C616.625 45.7024 615.75 44.0774 613.75 43.1399C612.25 42.3899 610.688 41.7649 609.062 41.3274C608.625 41.2649 608.188 41.2649 608 41.0774C611.5 41.0774 615 41.0774 618.5 41.0774ZM626.875 58.0774C626.75 62.3274 624.875 65.7649 621.75 68.3899C618.25 71.3274 614.062 72.8274 609.5 73.3274C606.125 73.7024 602.688 73.5149 599.438 72.3899C596.312 71.3274 594 69.3274 593.062 66.1399C591.312 60.2649 591.625 54.3899 594.625 48.9524C596.625 45.3274 599.812 43.1399 604 42.4524C607.688 41.8274 610.875 43.1399 612.625 46.4524C613.625 48.3274 613.562 52.1399 612.625 54.0149C611.25 56.7649 608 57.3899 605.438 55.7024C603.688 54.5774 602.812 52.8274 602.875 50.7649C602.938 48.7024 603.875 47.3274 605.75 46.4524C606.438 46.0774 606.625 45.6399 606.312 44.9524C606 44.2024 605.438 44.1399 604.75 44.2649C603.438 44.5149 602.25 45.0149 601.312 45.9524C599.062 48.2024 598.75 52.3274 600.75 55.0774C602.938 58.1399 607.062 58.9524 610.375 57.2649C614 55.3899 616.062 51.9524 616 47.8274C615.938 43.5774 613.312 40.5774 609.188 39.7024C605.5 38.8899 602.062 39.6399 598.938 41.5774C595 43.9524 592.625 47.5149 591.312 51.7649C590.125 55.7649 590 59.8274 591.312 63.8274C592.875 68.5774 596.312 71.5149 601.062 72.5774C607.375 74.0149 613.25 72.8274 618.5 69.1399C623.188 65.8274 625.562 61.0774 625.5 55.0774C625.5 53.3899 625.5 53.3899 623.812 53.3899C623.375 53.3899 623 53.3899 622.562 53.3899C621.312 53.3899 620.375 54.0149 619.875 55.1399C619.375 56.3274 619.625 57.3899 620.562 58.2024C620.875 58.5149 621.25 58.7649 621.625 58.9524C623.375 59.8274 625.125 60.5774 627.375 61.5149C627.25 60.3274 627.062 58.9524 626.875 58.0774Z" fill="#C9A227"/>
  <path d="M73.3125 119.078C73.3125 118.265 73.0312 117.625 72.4688 117.156C71.9062 116.687 71.125 116.453 70.125 116.453C69.1458 116.453 68.3854 116.687 67.8438 117.156C67.3021 117.625 67.0312 118.281 67.0312 119.125V119.547H69.0625V119.125C69.0625 118.792 69.1354 118.547 69.2812 118.391C69.4271 118.234 69.6562 118.156 69.9688 118.156C70.2917 118.156 70.5312 118.234 70.6875 118.391C70.8438 118.547 70.9219 118.765 70.9219 119.047C70.9219 119.328 70.8333 119.578 70.6562 119.797C70.4792 120.016 70.2708 120.208 70.0312 120.375C69.7917 120.542 69.5417 120.708 69.2812 120.875C69.0208 121.042 68.7708 121.24 68.5312 121.469C68.2917 121.698 68.1042 121.974 67.9688 122.297C67.8333 122.62 67.7708 123.026 67.7812 123.516V124.031H73.3125V122.297H70.0625C70.1042 122.172 70.1771 122.057 70.2812 121.953C70.3854 121.839 70.5 121.74 70.625 121.656C70.75 121.562 70.875 121.479 71 121.406C71.1354 121.323 71.2604 121.245 71.375 121.172C71.6354 121.016 71.8958 120.849 72.1562 120.672C72.4167 120.484 72.6458 120.266 72.8438 120.016C73.0521 119.755 73.2188 119.453 73.3438 119.109C73.4688 118.766 73.5312 118.359 73.5312 117.891C73.5312 117.328 73.4583 116.849 73.3125 116.453C73.1667 116.057 72.9688 115.74 72.7188 115.5C72.4792 115.26 72.2083 115.089 71.9062 114.984C71.6042 114.87 71.2917 114.792 70.9688 114.75C70.6562 114.708 70.3438 114.687 70.0312 114.687C69.2604 114.677 68.5938 114.786 68.0312 115.016C67.4792 115.245 67.0417 115.651 66.7188 116.234C66.4062 116.807 66.25 117.609 66.25 118.641V119.219H68.2656V118.5C68.2656 118.083 68.3229 117.755 68.4375 117.516C68.5625 117.276 68.7708 117.156 69.0625 117.156C69.3333 117.156 69.5417 117.234 69.6875 117.391C69.8333 117.547 69.9062 117.745 69.9062 117.984C69.9062 118.245 69.8438 118.458 69.7188 118.625C69.5938 118.792 69.4479 118.932 69.2812 119.047C69.1146 119.151 68.9583 119.245 68.8125 119.328C68.6667 119.411 68.5417 119.484 68.4375 119.547C68.3021 119.672 68.1458 119.818 67.9688 119.984C67.8021 120.141 67.6458 120.318 67.5 120.516C67.3646 120.713 67.2396 120.937 67.125 121.188C67.0208 121.427 66.9479 121.693 66.9062 121.984C66.875 122.266 66.849 122.62 66.8281 123.047C66.8177 123.224 66.8125 123.411 66.8125 123.609C66.8125 123.797 66.8125 123.927 66.8125 124H69.9062V122.594H71.2344V124H74.25V122.219L73.3125 122.328V119.078ZM88.2344 114.812L83.5312 124H85.6719L86.5312 122.219H90.4375L91.2969 124H93.4688L88.7344 114.812H88.2344ZM87.1719 120.703L88.4844 117.516L89.7969 120.703H87.1719ZM102.734 116.328C103.359 116.328 103.891 116.427 104.328 116.625C104.766 116.823 105.104 117.094 105.344 117.438C105.594 117.771 105.744 118.151 105.797 118.578C105.859 119.005 105.891 119.448 105.891 119.906C105.891 120.354 105.859 120.797 105.797 121.234C105.745 121.672 105.599 122.057 105.359 122.391C105.13 122.724 104.792 122.995 104.344 123.203C103.896 123.411 103.354 123.516 102.719 123.516H100.656V116.328H102.734ZM101.938 122.125H102.484C102.859 122.125 103.172 122.078 103.422 121.984C103.672 121.891 103.865 121.76 104 121.594C104.146 121.417 104.245 121.208 104.297 120.969C104.349 120.719 104.375 120.448 104.375 120.156V119.656C104.375 119.365 104.349 119.094 104.297 118.844C104.245 118.594 104.146 118.385 104 118.219C103.865 118.042 103.672 117.906 103.422 117.812C103.172 117.708 102.859 117.656 102.484 117.656H101.938V122.125ZM119.062 114.812H113.891V124H119.016V122.297H115.156V120.172H118.719V118.5H115.156V116.516H119.062V114.812ZM127.953 114.812H122.781V124H127.906V122.297H124.047V120.172H127.609V118.5H124.047V116.516H127.953V114.812ZM139.734 119.766C139.734 118.724 139.531 117.833 139.125 117.094C138.719 116.344 138.13 115.766 137.359 115.359C136.599 114.943 135.693 114.734 134.641 114.734C133.599 114.734 132.698 114.943 131.938 115.359C131.177 115.766 130.594 116.344 130.188 117.094C129.792 117.833 129.594 118.724 129.594 119.766V119.984C129.594 121.016 129.792 121.901 130.188 122.641C130.594 123.38 131.177 123.953 131.938 124.359C132.698 124.766 133.599 124.969 134.641 124.969C135.693 124.969 136.599 124.766 137.359 124.359C138.13 123.953 138.719 123.38 139.125 122.641C139.531 121.901 139.734 121.016 139.734 119.984V119.766ZM138.25 120.062C138.25 120.802 138.141 121.448 137.922 122C137.714 122.542 137.401 122.964 136.984 123.266C136.578 123.568 136.083 123.719 135.5 123.719H133.781C133.198 123.719 132.698 123.568 132.281 123.266C131.875 122.964 131.568 122.542 131.359 122C131.151 121.448 131.047 120.802 131.047 120.062V119.703C131.047 118.953 131.151 118.302 131.359 117.75C131.578 117.198 131.891 116.771 132.297 116.469C132.703 116.167 133.198 116.016 133.781 116.016H135.5C136.083 116.016 136.578 116.167 136.984 116.469C137.401 116.771 137.714 117.193 137.922 117.734C138.141 118.276 138.25 118.922 138.25 119.672V120.062ZM149.094 114.812H144.766V124H146.031V120.125H149.062V118.484H146.031V116.422H149.094V114.812ZM157.969 114.812L153.266 124H155.406L156.266 122.219H160.172L161.031 124H163.203L158.469 114.812H157.969ZM156.906 120.703L158.219 117.516L159.531 120.703H156.906ZM172.578 114.812H171.328V122.344L167.281 114.812H166.078V124H167.328V116.453L171.359 124H172.578V114.812ZM182.266 114.812H177.094V124H182.219V122.297H178.359V120.172H181.922V118.5H178.359V116.516H182.266V114.812ZM188.125 114.812V122.281H186.109V124H191.375V122.281H189.391V114.812H188.125ZM199.594 114.812H198.344V122.344L194.297 114.812H193.094V124H194.344V116.453L198.375 124H199.594V114.812ZM206.641 116.328C207.266 116.328 207.797 116.427 208.234 116.625C208.672 116.823 209.01 117.094 209.25 117.438C209.5 117.771 209.651 118.151 209.703 118.578C209.766 119.005 209.797 119.448 209.797 119.906C209.797 120.354 209.766 120.797 209.703 121.234C209.651 121.672 209.505 122.057 209.266 122.391C209.036 122.724 208.698 122.995 208.25 123.203C207.802 123.411 207.26 123.516 206.625 123.516H204.562V116.328H206.641ZM205.844 122.125H206.391C206.766 122.125 207.078 122.078 207.328 121.984C207.578 121.891 207.771 121.76 207.906 121.594C208.052 121.417 208.151 121.208 208.203 120.969C208.255 120.719 208.281 120.448 208.281 120.156V119.656C208.281 119.365 208.255 119.094 208.203 118.844C208.151 118.594 208.052 118.385 207.906 118.219C207.771 118.042 207.578 117.906 207.328 117.812C207.078 117.708 206.766 117.656 206.391 117.656H205.844V122.125ZM218.062 116.281C218.208 116.281 218.417 116.307 218.688 116.359C218.958 116.411 219.224 116.516 219.484 116.672C219.755 116.828 219.99 117.062 220.188 117.375C220.385 117.677 220.484 118.099 220.484 118.641V119.266H218.734V118.734C218.734 118.432 218.677 118.193 218.562 118.016C218.448 117.839 218.297 117.729 218.109 117.688C217.922 117.635 217.724 117.625 217.516 117.656C217.307 117.687 217.115 117.771 216.938 117.906C216.76 118.052 216.609 118.234 216.484 118.453C216.359 118.672 216.297 118.99 216.297 119.406V119.828C216.297 120.151 216.339 120.417 216.422 120.625C216.516 120.823 216.625 120.984 216.75 121.109C216.885 121.234 217.031 121.328 217.188 121.391C217.344 121.453 217.495 121.495 217.641 121.516C217.953 121.547 218.224 121.505 218.453 121.391C218.693 121.266 218.88 121.094 219.016 120.875C219.151 120.656 219.219 120.401 219.219 120.109H220.891L220.938 120.156C220.969 120.667 220.88 121.156 220.672 121.625C220.464 122.083 220.125 122.464 219.656 122.766C219.198 123.057 218.599 123.203 217.859 123.203H217.453C217.068 123.203 216.688 123.151 216.312 123.047C215.948 122.943 215.615 122.776 215.312 122.547C215.01 122.307 214.766 122.005 214.578 121.641C214.391 121.276 214.297 120.844 214.297 120.344V118.781C214.297 118.177 214.43 117.682 214.695 117.297C214.961 116.911 215.312 116.615 215.75 116.406C216.198 116.187 216.688 116.078 217.219 116.078H218.062V116.281ZM228.156 114.812H222.984V124H228.109V122.297H224.25V120.172H227.812V118.5H224.25V116.516H228.156V114.812ZM234.016 114.812V122.281H232V124H237.266V122.281H235.281V114.812H234.016ZM244.469 114.812H243.219V122.344L239.172 114.812H237.969V124H239.219V116.453L243.25 124H244.469V114.812ZM248.953 114.812V124H250.219V114.812H248.953ZM260.672 124H262.688L258.812 114.812H257.453L253.578 124H255.594L256.328 121.875H259.938L260.672 124ZM256.859 120.328L258.125 116.578L259.406 120.328H256.859ZM271.094 119.844C271.094 118.885 271 118.083 270.812 117.438C270.625 116.792 270.359 116.276 270.016 115.891C269.672 115.495 269.25 115.208 268.75 115.031C268.26 114.844 267.714 114.75 267.109 114.75H264.328V124H267.109C267.714 124 268.26 123.911 268.75 123.734C269.25 123.547 269.672 123.260 270.016 122.875C270.359 122.479 270.625 121.958 270.812 121.312C271 120.667 271.094 119.865 271.094 118.906V119.844ZM269.828 119.078C269.828 119.766 269.786 120.344 269.703 120.812C269.62 121.281 269.495 121.661 269.328 121.953C269.172 122.245 268.969 122.458 268.719 122.594C268.469 122.719 268.182 122.802 267.859 122.844C267.536 122.875 267.177 122.891 266.781 122.891H265.594V115.875H266.781C267.177 115.875 267.536 115.895 267.859 115.938C268.182 115.97 268.469 116.057 268.719 116.203C268.969 116.349 269.172 116.568 269.328 116.859C269.495 117.151 269.62 117.531 269.703 118C269.786 118.469 269.828 119.042 269.828 119.719V119.078ZM277.844 114.812L273.141 124H275.281L276.141 122.219H280.047L280.906 124H283.078L278.344 114.812H277.844ZM276.781 120.703L278.094 117.516L279.406 120.703H276.781ZM291.594 114.812H290.078L287.922 119.047L285.781 114.812H284.234V124H285.5V117.141L288.078 122.156H288.484V122.062L291.094 117.094V124H292.359V114.812H291.594ZM301.797 119.797C301.797 118.776 301.583 117.896 301.156 117.156C300.74 116.417 300.141 115.834 299.359 115.406C298.578 114.979 297.656 114.766 296.594 114.766C295.531 114.766 294.609 114.979 293.828 115.406C293.047 115.834 292.443 116.417 292.016 117.156C291.599 117.896 291.391 118.776 291.391 119.797V119.969C291.391 120.99 291.599 121.87 292.016 122.609C292.443 123.349 293.047 123.932 293.828 124.359C294.609 124.786 295.531 125 296.594 125C297.656 125 298.578 124.786 299.359 124.359C300.141 123.932 300.74 123.349 301.156 122.609C301.583 121.87 301.797 120.99 301.797 119.969V119.797ZM300.531 120.047C300.531 120.786 300.417 121.432 300.188 121.984C299.969 122.536 299.656 122.964 299.25 123.266C298.844 123.568 298.349 123.719 297.766 123.719H295.453C294.859 123.719 294.359 123.568 293.953 123.266C293.547 122.964 293.229 122.536 293 121.984C292.781 121.432 292.672 120.786 292.672 120.047V119.703C292.672 118.964 292.781 118.318 293 117.766C293.229 117.214 293.547 116.786 293.953 116.484C294.359 116.172 294.859 116.016 295.453 116.016H297.766C298.349 116.016 298.844 116.172 299.25 116.484C299.656 116.786 299.969 117.214 300.188 117.766C300.417 118.318 300.531 118.964 300.531 119.703V120.047ZM311.094 114.812H305.922V124H311.047V122.297H307.188V120.172H310.75V118.5H307.188V116.516H311.094V114.812ZM316.953 114.812V122.281H314.938V124H320.203V122.281H318.219V114.812H316.953ZM326.797 114.812H325.547V122.344L321.5 114.812H320.297V124H321.547V116.453L325.578 124H326.797V114.812ZM334.875 114.812L330.172 124H332.312L333.172 122.219H337.078L337.938 124H340.109L335.375 114.812H334.875ZM333.812 120.703L335.125 117.516L336.438 120.703H333.812Z" fill="#C9A227"/>
</svg>
